<svg xmlns="http://www.w3.org/2000/svg" viewBox="0 0 64 64" aria-labelledby="title"
aria-describedby="desc" role="img" xmlns:xlink="http://www.w3.org/1999/xlink">
  <title>Paperwork</title>
  <desc>A solid styled icon from Orion Icon Library.</desc>
  <path data-name="layer2"
  d="M4 14v48h38V14zm20 30H14a2 2 0 0 1 0-4h10a2 2 0 0 1 0 4zm8-8H14a2 2 0 0 1 0-4h18a2 2 0 0 1 0 4zm0-10H14a2 2 0 0 1 0-4h18a2 2 0 0 1 0 4z"
  fill="#ffffff"></path>
  <path data-name="layer1" fill="#ffffff" d="M12 2v8h34v52h14V2H12z"></path>
</svg>