<svg width="33" height="33" viewBox="0 0 33 33" fill="none" xmlns="http://www.w3.org/2000/svg">
<path d="M1.03125 10.3125V29.9062H31.9688V10.3125H1.03125ZM22.3884 16.2061L14.4566 24.1354L10.1222 19.8C9.93438 19.6055 9.83044 19.345 9.83279 19.0746C9.83514 18.8042 9.94359 18.5456 10.1348 18.3544C10.326 18.1632 10.5846 18.0547 10.855 18.0524C11.1254 18.05 11.3859 18.154 11.5804 18.3418L14.4566 21.218L20.9303 14.7469C21.1238 14.5535 21.3861 14.4449 21.6597 14.445C21.9333 14.4451 22.1956 14.5539 22.389 14.7474C22.5823 14.9409 22.6909 15.2033 22.6908 15.4768C22.6907 15.7504 22.5819 16.0127 22.3884 16.2061Z" fill="white"/>
<path d="M1.03125 3.09375V8.25H31.9688V3.09375H1.03125ZM4.125 6.70312C3.92104 6.70312 3.72166 6.64264 3.55207 6.52933C3.38248 6.41601 3.2503 6.25495 3.17225 6.06652C3.0942 5.87808 3.07377 5.67073 3.11356 5.47069C3.15336 5.27065 3.25157 5.08689 3.3958 4.94267C3.54002 4.79845 3.72377 4.70023 3.92381 4.66044C4.12386 4.62065 4.33121 4.64107 4.51964 4.71912C4.70808 4.79718 4.86914 4.92936 4.98245 5.09894C5.09577 5.26853 5.15625 5.46791 5.15625 5.67188C5.15625 5.94538 5.0476 6.20768 4.8542 6.40108C4.66081 6.59448 4.3985 6.70312 4.125 6.70312ZM7.21875 6.70312C7.01479 6.70312 6.81541 6.64264 6.64582 6.52933C6.47623 6.41601 6.34405 6.25495 6.266 6.06652C6.18795 5.87808 6.16752 5.67073 6.20731 5.47069C6.24711 5.27065 6.34532 5.08689 6.48955 4.94267C6.63377 4.79845 6.81752 4.70023 7.01756 4.66044C7.21761 4.62065 7.42496 4.64107 7.61339 4.71912C7.80183 4.79718 7.96289 4.92936 8.0762 5.09894C8.18952 5.26853 8.25 5.46791 8.25 5.67188C8.25 5.94538 8.14135 6.20768 7.94795 6.40108C7.75456 6.59448 7.49225 6.70312 7.21875 6.70312ZM10.3125 6.70312C10.1085 6.70312 9.90916 6.64264 9.73957 6.52933C9.56998 6.41601 9.4378 6.25495 9.35975 6.06652C9.2817 5.87808 9.26127 5.67073 9.30107 5.47069C9.34086 5.27065 9.43907 5.08689 9.5833 4.94267C9.72752 4.79845 9.91127 4.70023 10.1113 4.66044C10.3114 4.62065 10.5187 4.64107 10.7071 4.71912C10.8956 4.79718 11.0566 4.92936 11.17 5.09894C11.2833 5.26853 11.3438 5.46791 11.3438 5.67188C11.3438 5.94538 11.2351 6.20768 11.0417 6.40108C10.8483 6.59448 10.586 6.70312 10.3125 6.70312Z" fill="white"/>
</svg>
