<svg width="80" height="81" viewBox="0 0 80 81" fill="none" xmlns="http://www.w3.org/2000/svg">
<path d="M40 40.5C45.5228 40.5 50 35.9669 50 30.375C50 24.7831 45.5228 20.25 40 20.25C34.4772 20.25 30 24.7831 30 30.375C30 35.9669 34.4772 40.5 40 40.5Z" stroke="white" stroke-width="3"/>
<path d="M59.897 67.5C59.3666 57.7412 56.4156 50.625 39.9996 50.625C23.584 50.625 20.633 57.7412 20.1025 67.5" stroke="white" stroke-width="3" stroke-linecap="round"/>
<path d="M23.3333 11.2651C28.2362 8.39352 33.9287 6.75 40 6.75C58.4093 6.75 73.3333 21.8604 73.3333 40.5C73.3333 59.1394 58.4093 74.25 40 74.25C21.5905 74.25 6.66666 59.1394 6.66666 40.5C6.66666 34.3528 8.28989 28.5892 11.1261 23.625" stroke="white" stroke-width="3" stroke-linecap="round"/>
</svg>
